<svg xmlns="http://www.w3.org/2000/svg" xmlns:xlink="http://www.w3.org/1999/xlink" version="1.1" x="0" y="0" width="231" height="151" viewBox="0 11 231 151" xml:space="preserve" enable-background="new 0 11 231 151">
  <style type="text/css">
    
	.st0{fill:none;stroke:#333333;stroke-width:5;stroke-miterlimit:10;}
	.st1{fill:#660000;}
	.st2{fill:none;stroke:#333333;stroke-width:6;stroke-miterlimit:10;}

  </style>
  <line class="st2" x1="81.9" y1="120" x2="137.9" y2="120"/>
  <line class="st2" x1="114.3" y1="55.9" x2="170.3" y2="55.9"/>
  <line class="st2" x1="134.9" y1="120" x2="168.8" y2="120"/>
  <line class="st2" x1="167.3" y1="89.8" x2="201.2" y2="89.8"/>
  <line class="st0" x1="81.6" y1="88" x2="81.6" y2="119.6"/>
  <line class="st2" x1="83.2" y1="24.1" x2="114" y2="54.9"/>
  <line class="st2" x1="50.9" y1="56.5" x2="81.6" y2="87.2"/>
  <line class="st2" x1="140.2" y1="122.3" x2="171" y2="153.1"/>
  <line class="st2" x1="170.9" y1="56.5" x2="201.7" y2="87.2"/>
  <line class="st2" x1="82" y1="119.9" x2="112.7" y2="150.6"/>
  <line class="st2" x1="50.7" y1="56.7" x2="19.5" y2="87"/>
  <line class="st2" x1="81.8" y1="120.1" x2="50.6" y2="150.5"/>
  <line class="st2" x1="168.8" y1="89.8" x2="137.6" y2="120.1"/>
  <line class="st2" x1="204.3" y1="24.7" x2="168.7" y2="56.3"/>
  <line class="st2" x1="81.7" y1="25.8" x2="50.8" y2="56.5"/>
  <circle class="st1" cx="83.2" cy="24.1" r="4.6"/>
  <circle class="st1" cx="49.7" cy="56.5" r="4.6"/>
  <circle class="st1" cx="81.6" cy="88" r="4.6"/>
  <circle class="st1" cx="137.8" cy="120.3" r="4.6"/>
  <circle class="st1" cx="81.6" cy="120.3" r="4.6"/>
  <circle class="st1" cx="112.7" cy="150.6" r="4.6"/>
  <circle class="st1" cx="19.3" cy="87.2" r="4.6"/>
  <circle class="st1" cx="50.5" cy="150.6" r="4.6"/>
  <circle class="st1" cx="113.9" cy="56.5" r="4.6"/>
  <circle class="st1" cx="169" cy="90" r="4.6"/>
  <circle class="st1" cx="205.2" cy="90" r="4.6"/>
  <circle class="st1" cx="169" cy="56.9" r="4.6"/>
  <circle class="st1" cx="169" cy="120.3" r="4.6"/>
  <circle class="st1" cx="205.2" cy="24.1" r="4.6"/>
  <circle class="st1" cx="170.9" cy="153.1" r="4.6"/>
</svg>
