<svg xmlns="http://www.w3.org/2000/svg" xmlns:xlink="http://www.w3.org/1999/xlink" version="1.1" x="0" y="0" width="295" height="221" viewBox="0 0 295 221" xml:space="preserve" enable-background="new 0 0 295 221">
  <style type="text/css">
    
	.st0{fill:none;stroke:#333333;stroke-width:5;stroke-miterlimit:10;}
	.st1{fill:#660000;}
	.st2{fill:none;stroke:#333333;stroke-width:6;stroke-miterlimit:10;}

  </style>
  <line class="st2" x1="106" y1="156" x2="182" y2="156"/>
  <line class="st2" x1="150" y1="69" x2="226" y2="69"/>
  <line class="st2" x1="178" y1="156" x2="224" y2="156"/>
  <line class="st2" x1="222" y1="115" x2="268" y2="115"/>
  <line class="st0" x1="105.5" y1="112.5" x2="105.6" y2="155.5"/>
  <line class="st2" x1="107.7" y1="25.8" x2="149.5" y2="67.6"/>
  <line class="st2" x1="63.8" y1="69.7" x2="105.6" y2="111.5"/>
  <line class="st2" x1="185.2" y1="159.1" x2="227" y2="200.9"/>
  <line class="st2" x1="226.9" y1="69.7" x2="268.7" y2="111.5"/>
  <line class="st2" x1="106.1" y1="155.9" x2="147.8" y2="197.6"/>
  <line class="st2" x1="63.6" y1="70" x2="21.2" y2="111.2"/>
  <line class="st2" x1="105.9" y1="156.2" x2="63.5" y2="197.4"/>
  <line class="st2" x1="224" y1="115" x2="181.6" y2="156.2"/>
  <line class="st2" x1="272.2" y1="26.5" x2="223.9" y2="69.5"/>
  <line class="st2" x1="105.7" y1="28.1" x2="63.7" y2="69.7"/>
  <circle class="st1" cx="107.7" cy="25.8" r="6.3"/>
  <circle class="st1" cx="62.2" cy="69.7" r="6.3"/>
  <circle class="st1" cx="105.5" cy="112.5" r="6.3"/>
  <circle class="st1" cx="181.9" cy="156.4" r="6.3"/>
  <circle class="st1" cx="105.5" cy="156.4" r="6.3"/>
  <circle class="st1" cx="147.8" cy="197.6" r="6.3"/>
  <circle class="st1" cx="21" cy="111.4" r="6.3"/>
  <circle class="st1" cx="63.3" cy="197.6" r="6.3"/>
  <circle class="st1" cx="149.4" cy="69.7" r="6.3"/>
  <circle class="st1" cx="224.2" cy="115.2" r="6.3"/>
  <circle class="st1" cx="273.5" cy="115.2" r="6.3"/>
  <circle class="st1" cx="224.2" cy="70.3" r="6.3"/>
  <circle class="st1" cx="224.2" cy="156.4" r="6.3"/>
  <circle class="st1" cx="273.5" cy="25.8" r="6.3"/>
  <circle class="st1" cx="226.9" cy="200.9" r="6.3"/>
</svg>
